<?xml version="1.0" encoding="UTF-8"?>
<svg id="uuid-cccf96e8-52cf-42e5-a363-0aaf17223b5c" data-name="Gold" xmlns="http://www.w3.org/2000/svg" viewBox="0 0 2760.84 2500">
  <defs>
    <style>
      .uuid-681122f9-a172-491a-bf60-bb5ed240f253 {
        fill-rule: evenodd;
      }

      .uuid-681122f9-a172-491a-bf60-bb5ed240f253, .uuid-bab72c6e-1d13-48cd-856e-affc98625d47, .uuid-d88bdeee-8afd-4eff-9f5a-6fbb476e0ad9 {
        fill: #cebb88;
      }

      .uuid-bab72c6e-1d13-48cd-856e-affc98625d47 {
        font-family: VladimirScript, 'Vladimir Script';
        font-size: 347.76px;
      }

      .uuid-091aca4f-6314-4529-8a2b-7549ccd45004 {
        letter-spacing: -.06em;
      }

      .uuid-d88bdeee-8afd-4eff-9f5a-6fbb476e0ad9 {
        font-family: BrushScriptMT, 'Brush Script MT';
        font-size: 347.76px;
      }

      .uuid-7bea9f90-5f9d-4b1d-99f1-44b33a1dbaba {
        fill: none;
      }
    </style>
  </defs>
  <g>
    <text class="uuid-bab72c6e-1d13-48cd-856e-affc98625d47" transform="translate(1115.61 1573.45)"><tspan x="0" y="0">Kitchen</tspan></text>
    <path class="uuid-681122f9-a172-491a-bf60-bb5ed240f253" d="M248.67,1121.99c74.87-287.51,368.62-459.89,656.1-385.01,146,38.03,262.3,132.51,331.61,253.96-70.63-135.23-195.93-241.26-355.18-282.74-299.19-77.93-604.9,101.46-682.81,400.69-77.92,299.22,101.45,604.96,400.63,682.9,159.25,41.48,320.36,10.05,447.96-73.54-119.74,72.21-267.35,97.94-413.35,59.91-287.48-74.87-459.83-368.66-384.96-656.17Z"/>
    <text class="uuid-d88bdeee-8afd-4eff-9f5a-6fbb476e0ad9" transform="translate(978.04 1315.08) rotate(-19.24)"><tspan x="0" y="0">egh</tspan><tspan class="uuid-091aca4f-6314-4529-8a2b-7549ccd45004" x="362.36" y="0">’</tspan><tspan x="456.26" y="0">s</tspan></text>
    <path class="uuid-681122f9-a172-491a-bf60-bb5ed240f253" d="M2580.17,1503.92c-21.54,13.56-44.68,25.94-69.42,37.11-31.12,14.37-63.84,23.54-98.15,27.53-43.89,7.98-86.78,6.18-128.67-5.39-41.89-11.56-81.79-27.93-119.7-49.08-37.9-21.15-75.4-44.49-112.51-70.03-37.11-25.53-74.82-49.87-113.12-73.02-39.1-25.53-80.79-46.09-125.08-61.65-44.29-15.56-89.58-28.93-135.86-40.1-104.53-17.56-199.5-17.56-284.88,0-85.38,17.55-158.59,51.08-219.63,100.55-61.05,49.47-97.16,79.01-108.33,88.58-11.97,10.38-25.34,18.56-40.1,24.54-14.76,5.99-30.52,8.98-47.28,8.98-23.94,0-43.49-8.18-58.65-24.54-15.16-16.37-27.53-37.72-37.11-64.05-9.57-26.34-12.96-88.98-10.17-187.94,2.79-98.96,2.19-165.59-1.8-199.91-8.78,15.96-24.73,75.02-47.87,177.17-23.14,102.15-45.88,184.35-68.23,246.6-1.59,4.78-3.59,9.97-5.98,15.56-2.39,5.58-5.39,10.97-8.98,16.15-3.59,5.19-7.98,9.58-13.17,13.17-5.19,3.59-11.37,5.39-18.55,5.39-4.79,0-9.18-1.2-13.17-3.59-3.99-2.4-7.38-5.19-10.17-8.38-2.79-3.2-5.19-6.78-7.18-10.78-2-3.98-3.79-7.98-5.39-11.96-7.98-17.56-14.36-35.52-19.15-53.87-4.79-18.36-8.78-37.12-11.97-56.27-3.19-19.16-5.98-39.71-8.38-61.65-2.39-21.95-4.79-45.29-7.18-70.03-7.98,19.15-15.16,37.31-21.55,54.47-6.38,17.16-12.57,34.51-18.55,52.07-5.98,17.55-12.17,35.51-18.56,53.87-6.38,18.36-12.77,38.31-19.15,59.85l-4.79,16.76c-1.59,5.58-3.79,10.57-6.58,14.96-2.79,4.39-6.18,8.17-10.17,11.37-3.99,3.19-9.18,4.79-15.56,4.79-9.57,0-16.76-3.2-21.54-9.58-4.79-6.38-8.78-13.96-11.97-22.74-4.79-11.17-9.37-27.33-13.76-48.48-4.39-21.16-8.18-43.9-11.37-68.24-3.19-24.35-5.78-49.48-7.78-75.41-1.99-25.94-2.99-50.48-2.99-73.63,0-21.55,5.78-37.51,17.35-47.88,11.57-10.37,26.93-15.56,46.08-15.56h4.79c2.4,0,4.79,.2,7.18,.6,2.4,.4,4.59,1.19,6.58,2.4,1.99,1.2,2.59,2.99,1.8,5.39-3.19,27.13-5.39,53.07-6.58,77.81-1.2,24.74-1.59,48.69-1.2,71.82,.4,23.14,1.59,45.89,3.59,68.24,1.99,22.35,4.58,45.09,7.78,68.23,7.18-22.35,13.97-43.7,20.35-64.05,6.39-20.35,12.97-40.3,19.75-59.85,6.79-19.55,14.17-39.7,22.15-60.45,7.98-20.75,16.76-42.3,26.33-64.65,5.59-11.97,11.17-20.15,16.76-24.54,5.59-4.39,12.77-6.58,21.55-6.58,11.17,0,19.95,4.19,26.33,12.57,6.39,8.38,10.78,18.16,13.17,29.33,3.19,19.95,5.79,40.31,7.78,61.05,1.99,20.75,4.39,41.7,7.18,62.85,2.79,21.15,6.18,41.9,10.18,62.25,3.98,20.35,9.17,40.1,15.56,59.25,7.98-19.95,24.14-84.99,48.47-195.12,24.34-110.14,41.1-175.97,50.27-197.52,9.18-21.55,18.95-41.9,29.33-61.05,4.79-8.78,10.37-16.16,16.76-22.14,6.38-5.99,14.36-8.98,23.94-8.98,5.59,0,10.57,1.2,14.96,3.59,4.39,2.4,8.18,5.59,11.37,9.58,3.19,3.99,5.79,8.38,7.78,13.17,2,4.79,3.39,9.97,4.19,15.56,1.59,11.17,2.79,79.01,3.59,203.51,.8,124.5,4.39,194.93,10.77,211.28,6.39,16.37,14.36,29.93,23.94,40.7,9.57,10.77,20.35,16.16,32.32,16.16s55.26-28.53,129.87-85.6c74.61-57.06,157.4-93.57,248.37-109.54,90.97-15.96,187.52-15.16,289.66,2.4,47.87,8.78,93.76,21.95,137.64,39.5,43.89,17.56,86.98,38.71,129.27,63.45,36.71,23.94,72.82,48.48,108.32,73.62,35.51,25.14,72.42,47.89,110.72,68.24,38.3,20.35,77.6,36.32,117.9,47.88,40.29,11.57,81.99,14.17,125.08,7.79,43.89-7.19,100.94-25.14,171.16-53.87Z"/>
  </g>
  <rect class="uuid-7bea9f90-5f9d-4b1d-99f1-44b33a1dbaba" x="130.17" width="2500" height="2500"/>
</svg>